<?xml version="1.0" encoding="UTF-8"?>
<svg width="48px" height="48px" viewBox="0 0 48 48" version="1.1" xmlns="http://www.w3.org/2000/svg" xmlns:xlink="http://www.w3.org/1999/xlink">
    <title>status/48/notification-network-wireless-full</title>
    <defs>
        <filter x="-8.0%" y="-5.7%" width="115.9%" height="115.9%" filterUnits="objectBoundingBox" id="filter-1">
            <feOffset dx="0" dy="1" in="SourceAlpha" result="shadowOffsetOuter1"></feOffset>
            <feGaussianBlur stdDeviation="1" in="shadowOffsetOuter1" result="shadowBlurOuter1"></feGaussianBlur>
            <feColorMatrix values="0 0 0 0 0   0 0 0 0 0   0 0 0 0 0  0 0 0 0.2 0" type="matrix" in="shadowBlurOuter1" result="shadowMatrixOuter1"></feColorMatrix>
            <feMerge>
                <feMergeNode in="shadowMatrixOuter1"></feMergeNode>
                <feMergeNode in="SourceGraphic"></feMergeNode>
            </feMerge>
        </filter>
        <linearGradient x1="50%" y1="0.950782616%" x2="50%" y2="98.3214691%" id="linearGradient-2">
            <stop stop-color="#00FF8E" offset="0%"></stop>
            <stop stop-color="#00A15E" offset="100%"></stop>
        </linearGradient>
        <linearGradient x1="50%" y1="0%" x2="50%" y2="100%" id="linearGradient-3">
            <stop stop-color="#000000" stop-opacity="0.05" offset="0%"></stop>
            <stop stop-color="#000000" stop-opacity="0.1" offset="100%"></stop>
        </linearGradient>
    </defs>
    <g id="status/48/notification-network-wireless-full" stroke="none" stroke-width="1" fill="none" fill-rule="evenodd">
        <g id="notification-network-wireless-full" filter="url(#filter-1)" transform="translate(2, 2)" fill-rule="nonzero">
            <g id="编组">
                <circle id="椭圆形" fill="url(#linearGradient-2)" cx="22" cy="22" r="22"></circle>
                <path d="M22,0 C34.1502645,0 44,9.8497355 44,22 C44,34.1502645 34.1502645,44 22,44 C9.8497355,44 0,34.1502645 0,22 C0,9.8497355 9.8497355,0 22,0 Z M22,1 C10.4020203,1 1,10.4020203 1,22 C1,33.5979797 10.4020203,43 22,43 C33.5979797,43 43,33.5979797 43,22 C43,10.4020203 33.5979797,1 22,1 Z" id="椭圆形" fill="url(#linearGradient-3)"></path>
            </g>
            <g id="编组" transform="translate(6.8438, 10.9959)" fill="#FFFFFF">
                <path d="M28.9944897,8.195 C28.7264897,8.195 28.4594897,8.089 28.2624897,7.878 C24.7084897,4.094 19.9984897,2.009 14.9994897,2.009 C10.0004897,2.009 5.28948966,4.094 1.73648966,7.878 C1.35748966,8.281 0.72048966,8.302 0.31648966,7.922 C-0.08751034,7.543 -0.10751034,6.906 0.27248966,6.502 C4.20948966,2.309 9.43948966,0 15.0004897,0 C20.5614897,0 25.7914897,2.309 29.7284897,6.502 C30.1074897,6.906 30.0884897,7.543 29.6844897,7.922 C29.4884897,8.104 29.2404897,8.195 28.9944897,8.195 Z" id="路径"></path>
                <path d="M24.9954897,12.454 C24.7274897,12.454 24.4604897,12.348 24.2634897,12.137 C21.7804897,9.492 18.4904897,8.036 14.9984897,8.036 C11.5064897,8.036 8.21648966,9.492 5.73348966,12.137 C5.35448966,12.541 4.71748966,12.561 4.31348966,12.181 C3.90948966,11.802 3.88848966,11.165 4.26948966,10.761 C7.13548966,7.708 10.9454897,6.027 14.9984897,6.027 C19.0514897,6.027 22.8614897,7.708 25.7274897,10.761 C26.1074897,11.165 26.0874897,11.802 25.6834897,12.181 C25.4894897,12.363 25.2424897,12.454 24.9954897,12.454 Z" id="路径"></path>
                <path d="M8.99848966,16.711 C8.75148966,16.711 8.50448966,16.621 8.31048966,16.439 C7.90648966,16.06 7.88548966,15.424 8.26648966,15.019 C10.0604897,13.108 12.4514897,12.054 14.9984897,12.054 C17.5444897,12.054 19.9364897,13.107 21.7314897,15.019 C22.1104897,15.423 22.0914897,16.06 21.6874897,16.439 C21.2834897,16.818 20.6464897,16.799 20.2674897,16.395 C18.8554897,14.892 16.9844897,14.064 14.9984897,14.064 C13.0114897,14.064 11.1414897,14.892 9.73048966,16.395 C9.53348966,16.605 9.26648966,16.711 8.99848966,16.711 Z" id="路径"></path>
                <path d="M12.0114897,19.432 L15.0144897,22.631 L18.0114897,19.438 C18.0114897,19.438 17.9814897,19.423 17.9634897,19.404 C16.3204897,17.653 13.4994897,17.847 12.0114897,19.432 Z" id="路径"></path>
            </g>
        </g>
    </g>
</svg>